# xmcd
#
# Track frame offsets:
#	150
#	21062
#	37699
#	56600
#	71805
#	86921
#	105109
#	123399
#	138182
#	154320
#	172146
#	190145
#	203576
#	223492
#	237577
#	254850
#	270778
#	290879
#	306379
#	322798
#	340048
#
# Disc length: 4758 seconds
#
# Revision: 1
# Processed by: cddbd v1.4PL0 Copyright (c) Steve Scherf et al.
# Submitted via: audiograbber 1.80
#
DISCID=3b129415
DTITLE=Various Artist - Country Weekly Charts 2003 Disk 2
DYEAR=1900
DGENRE=
TTITLE0=Tim McGraw - Watch The Wind Blow By
TTITLE1=Brad Paisley - Little Moments
TTITLE2=Jimmy Wayne - I Love You This Much
TTITLE3=Trace Adkins - Hot Mama
TTITLE4=Scotty Emerick - I Can't Take You Anywhere
TTITLE5=Josh Turner - Long Black Train
TTITLE6=Sara Evans - Perfect
TTITLE7=Martina McBride - In My Daughter's Eyes
TTITLE8=Buddy Jewell - Sweet Southern Comfort
TTITLE9=Clint Black - Spend My Time
TTITLE10=Craig Morgan - Every Friday Afternoon
TTITLE11=Joe Nichols - Cool To Be A Fool
TTITLE12=Toby Keith - American Soldier
TTITLE13=Country Blue - Good Little Girls
TTITLE14=Kellie Coffey - Texas Plates
TTITLE15=Dierks Bentley - My Last Name
TTITLE16=Gary Allan - Songs About Rain
TTITLE17=Reba McEntire - I'm Gonna Take That Mountain
TTITLE18=Brian McComas - You're In My Head
TTITLE19=James Otto - Days Of Our Lives
TTITLE20=Tracy Lawrence - Paint Me A Birmingham
EXTD=
EXTT0=
EXTT1=
EXTT2=
EXTT3=
EXTT4=
EXTT5=
EXTT6=
EXTT7=
EXTT8=
EXTT9=
EXTT10=
EXTT11=
EXTT12=
EXTT13=
EXTT14=
EXTT15=
EXTT16=
EXTT17=
EXTT18=
EXTT19=
EXTT20=
PLAYORDER=
